<svg xmlns="http://www.w3.org/2000/svg" width="24" height="19.875"><path d="M56.5 844.448a.5.5 0 0 1-.486-.394.512.512 0 0 1 .372-.615l17-4.092a.5.5 0 0 1 .6.38.511.511 0 0 1-.372.615l-17 4.092a.456.456 0 0 1-.114.014Zm17 12.278a.453.453 0 0 1-.114-.014l-17-4.093a.511.511 0 0 1-.372-.614.5.5 0 0 1 .6-.381l17 4.093a.51.51 0 0 1 .372.614.5.5 0 0 1-.486.395Zm-17-4.093h-2A1.519 1.519 0 0 1 53 851.1v-6.14a1.52 1.52 0 0 1 1.5-1.535h2a.506.506 0 0 1 .5.512v8.185a.506.506 0 0 1-.5.511Zm-2-8.185a.507.507 0 0 0-.5.512v6.14a.507.507 0 0 0 .5.511H56v-7.162h-1.5Zm21 12.906a1.478 1.478 0 0 1-.478-.08l-1.684-.574a.516.516 0 0 1-.316-.648.5.5 0 0 1 .633-.324l1.684.575a.487.487 0 0 0 .45-.07.512.512 0 0 0 .211-.415v-15.577a.513.513 0 0 0-.208-.416.481.481 0 0 0-.45-.07l-1.684.575a.5.5 0 0 1-.633-.324.515.515 0 0 1 .316-.647l1.684-.575a1.447 1.447 0 0 1 1.352.212 1.53 1.53 0 0 1 .623 1.245v15.577a1.531 1.531 0 0 1-.623 1.245 1.466 1.466 0 0 1-.877.291Zm-8.534 1.224a1.409 1.409 0 0 1-.4-.059l-5.7-1.665a1.511 1.511 0 0 1-1.011-.989l-.833-2.558a.516.516 0 0 1 .316-.648.5.5 0 0 1 .632.324l.833 2.558a.5.5 0 0 0 .337.328l5.7 1.667a.5.5 0 0 0 .584-.264l.595-2.218a.5.5 0 0 1 .615-.355.511.511 0 0 1 .348.629l-.629 2.31a1.541 1.541 0 0 1-1.383.94Z" style="fill:#fff;fill-rule:evenodd" transform="translate(-53 -838.688)"/></svg>