<svg xmlns="http://www.w3.org/2000/svg" width="22" height="22.812"><path d="M72.5 579h-15a.5.5 0 0 1-.485-.378l-.915-3.649a2.5 2.5 0 0 1-2.1-2.466v-2a.5.5 0 0 1 .5-.5h21a.5.5 0 0 1 .5.5v2a2.5 2.5 0 0 1-2.1 2.466l-.913 3.649a.5.5 0 0 1-.487.378Zm-14.609-1h14.218l.905-3.617a.5.5 0 0 1 .485-.379 1.5 1.5 0 0 0 1.5-1.5v-1.5H55v1.5a1.5 1.5 0 0 0 1.5 1.5.5.5 0 0 1 .485.379Zm13.28-8.991a.5.5 0 0 1-.5-.5v-2.238a1.431 1.431 0 0 1 1.43-1.429h1.51a.435.435 0 0 0 .43-.43v-2.776a3.189 3.189 0 0 0-2-2.965l-3.6-1.478a.406.406 0 0 0-.508.149 3.309 3.309 0 0 1-5.866 0 .409.409 0 0 0-.509-.147l-3.6 1.477a3.189 3.189 0 0 0-2 2.965v2.776a.436.436 0 0 0 .43.43H57.9a1.431 1.431 0 0 1 1.43 1.429v2.238a.5.5 0 0 1-1 0v-2.238a.43.43 0 0 0-.43-.43h-1.51a1.431 1.431 0 0 1-1.43-1.429v-2.776a4.184 4.184 0 0 1 2.622-3.89l3.6-1.478a1.413 1.413 0 0 1 1.773.609 2.309 2.309 0 0 0 4.094 0 1.412 1.412 0 0 1 1.772-.612l3.6 1.479a4.185 4.185 0 0 1 2.619 3.89v2.776a1.431 1.431 0 0 1-1.43 1.429H72.1a.43.43 0 0 0-.43.43v2.238a.5.5 0 0 1-.499.502Z" data-name="Yuyucu vasitələr" style="fill:#ff8230;fill-rule:evenodd" transform="translate(-54 -556.188)"/></svg>