<svg xmlns="http://www.w3.org/2000/svg" width="23.938" height="21.969"><path d="M73.74 390.977h-9a.5.5 0 0 1 0-1.007h8.646l2.586-7.748a.5.5 0 0 1 .63-.316.5.5 0 0 1 .312.638l-2.7 8.091a.5.5 0 0 1-.474.342Zm2.7-8.09a.5.5 0 0 1-.5-.5.868.868 0 0 0 0-.1 6.408 6.408 0 0 0-6.7-6.692c-.24 0-.478.009-.7.026a.513.513 0 0 1-.54-.469.5.5 0 0 1 .458-.541c.247-.019.512-.029.777-.029a7.41 7.41 0 0 1 7.69 7.609 1.144 1.144 0 0 1 .009.192.5.5 0 0 1-.494.504Zm-7.2 0a.5.5 0 0 1-.5-.5 1.313 1.313 0 0 0-.926-1.261.5.5 0 0 1-.331-.628.5.5 0 0 1 .62-.335 2.311 2.311 0 0 1 1.631 2.224.5.5 0 0 1-.495.5Zm3.6 0a.5.5 0 0 1-.5-.5 1.3 1.3 0 1 0-2.607 0 .5.5 0 1 1-.994 0 2.3 2.3 0 1 1 4.6 0 .5.5 0 0 1-.499.5Zm3.6 0a.5.5 0 0 1-.5-.5 1.3 1.3 0 1 0-2.607 0 .5.5 0 1 1-.994 0 2.3 2.3 0 1 1 4.595 0 .5.5 0 0 1-.494.5Zm-5.851-10.148h-17.1a.5.5 0 0 1-.5-.5v-.913a2.315 2.315 0 0 1 2.3-2.327h13.5a2.315 2.315 0 0 1 2.3 2.327v.913a.5.5 0 0 1-.5.5Zm-16.607-1.007h16.11v-.409a1.313 1.313 0 0 0-1.3-1.32h-13.5a1.313 1.313 0 0 0-1.3 1.32v.409Zm12.192 19.25H57.9a1.4 1.4 0 0 1-1.391-1.275l-1.719-17.421a.507.507 0 0 1 .126-.388.493.493 0 0 1 .368-.166h13.5a.493.493 0 0 1 .369.166.5.5 0 0 1 .125.388l-1.719 17.421a1.4 1.4 0 0 1-1.386 1.275Zm-10.34-18.243 1.666 16.868a.4.4 0 0 0 .4.367h8.273a.4.4 0 0 0 .4-.367l1.664-16.868h-12.4Zm6.2 10.946a4.187 4.187 0 1 1 3.648-4.152 3.929 3.929 0 0 1-3.645 4.152Zm0-7.3a3.19 3.19 0 1 0 2.654 3.145 2.934 2.934 0 0 0-2.651-3.142Zm2.051 4.6a4.2 4.2 0 0 1-2.324-.92c-.879-.585-1.573-1.046-2.671-.537a.494.494 0 0 1-.658-.249.506.506 0 0 1 .245-.667 3.386 3.386 0 0 1 3.63.612c.877.585 1.572 1.045 2.671.537a.494.494 0 0 1 .658.249.506.506 0 0 1-.246.667 3.077 3.077 0 0 1-1.303.31Z" data-name="Şirniyyat, çay və qəhvə" style="fill:#ff8230;fill-rule:evenodd" transform="translate(-53 -369)"/></svg>