<svg xmlns="http://www.w3.org/2000/svg" width="25" height="26"><path d="M67.59 298.89a5.207 5.207 0 0 1-1.624-.27A20.224 20.224 0 0 1 53.29 285.8a4.372 4.372 0 0 1 .424-3.919 2.474 2.474 0 0 1 2.086-1.071l.3-.009a4.343 4.343 0 0 1 3.929 3.066 12.743 12.743 0 0 0 7.854 7.946 4.373 4.373 0 0 1 3.039 3.953l-.009.348a2.538 2.538 0 0 1-1.062 2.079 3.713 3.713 0 0 1-2.261.697Zm-11.859-17.082a1.52 1.52 0 0 0-1.227.673 3.377 3.377 0 0 0-.275 3.015 19.2 19.2 0 0 0 12.039 12.174 3.277 3.277 0 0 0 2.983-.277 1.542 1.542 0 0 0 .665-1.28l.009-.357a3.374 3.374 0 0 0-2.373-3 13.744 13.744 0 0 1-8.467-8.565 3.35 3.35 0 0 0-2.983-2.392l-.228.007a.785.785 0 0 1-.108 0h-.035ZM71.762 300a1.511 1.511 0 0 1-1.074-.451l-1.435-1.449a.5.5 0 0 1 0-.706.49.49 0 0 1 .572-.092.5.5 0 0 1-.048-.079.5.5 0 0 1 .221-.67l1.325-.669a1.5 1.5 0 0 1 1.6.152 1.536 1.536 0 0 1 .568 1.523l-.239 1.207a1.525 1.525 0 0 1-1.049 1.169 1.493 1.493 0 0 1-.441.065Zm-1.754-2.551 1.378 1.4a.519.519 0 0 0 .532.134.529.529 0 0 0 .367-.409l.239-1.208a.531.531 0 0 0-.2-.533.515.515 0 0 0-.561-.054l-1.325.67a.484.484 0 0 1-.431.001Zm-15.38-15.279a.483.483 0 0 1-.273-.084l-.963-.648a2.689 2.689 0 0 1-1.381-1.72 1.6 1.6 0 0 1 .534-1.3c.347-.35 1.405-1.414 2.3-.952 1.147.592.824 3.243.7 4.041a.5.5 0 0 1-.5.42l-.011.016a.49.49 0 0 1-.407.228Zm-.268-3.818a2.176 2.176 0 0 0-1.117.776.663.663 0 0 0-.25.491 2.068 2.068 0 0 0 .945.988l.675.455c.163-1.288.071-2.556-.213-2.7a.1.1 0 0 0-.041-.009Zm22.139-.245H59.051a.5.5 0 0 1-.493-.5V274.5a.5.5 0 0 1 .493-.5H76.5a.5.5 0 0 1 .493.5v3.113a.5.5 0 0 1-.493.495Zm-16.953-1H76V275H59.545v2.115ZM76.5 297.825h-3.481a.5.5 0 0 1 0-1H76v-2.116h-5.988a.5.5 0 0 1 0-1H76.5a.5.5 0 0 1 .493.5v3.114a.5.5 0 0 1-.493.502Zm-12.449 0h-5a.5.5 0 0 1-.493-.5v-3.114a.5.5 0 0 1 .493-.5h.339a.5.5 0 0 1 .155.973v2.14h4.5a.5.5 0 0 1 .004 1.001Zm11.423-3.114h-5.46a.5.5 0 0 1 0-1h4.967v-15.603h-14.41v7.242a.493.493 0 1 1-.987 0v-7.741a.5.5 0 0 1 .493-.5h15.4a.5.5 0 0 1 .493.5v16.6a.5.5 0 0 1-.498.502Zm-7.7-5.188a4.689 4.689 0 1 1 4.085-4.65 4.4 4.4 0 0 1-4.084 4.65Zm0-8.3a3.7 3.7 0 1 0 3.1 3.652 3.413 3.413 0 0 0-3.099-3.654Z" style="fill:#ff8230;fill-rule:evenodd" transform="translate(-52 -274)"/></svg>