<svg xmlns="http://www.w3.org/2000/svg" width="23" height="23.937"><path d="M73.5 673h-18a.5.5 0 0 1-.5-.5v-10.98a.5.5 0 0 1 1 0V672h17v-10.48a.5.5 0 0 1 1 0v10.98a.5.5 0 0 1-.5.5Zm2-11.98a.5.5 0 0 1-.5-.5v-.778l-10.5-9.529-10.5 9.531v.778a.5.5 0 0 1-1 0v-1a.5.5 0 0 1 .164-.37l11-9.983a.5.5 0 0 1 .673 0l11 9.983a.5.5 0 0 1 .164.37v1a.5.5 0 0 1-.501.499Zm-8 6.988h-6a.5.5 0 0 1-.5-.5v-6.988a.5.5 0 0 1 .5-.5h6a.5.5 0 0 1 .5.5v6.988a.5.5 0 0 1-.5.501Zm-5.5-1h5v-5.99h-5v5.99Z" data-name="Məişət, mətbəx və tekstil" style="fill:#ff8230;fill-rule:evenodd" transform="translate(-53 -649.063)"/></svg>