<svg xmlns="http://www.w3.org/2000/svg" width="22.344" height="24"><path d="M57.916 345a4.008 4.008 0 0 1-3.4-2.226 14.613 14.613 0 0 1 .61-11.99.506.506 0 0 1 .678-.219.5.5 0 0 1 .221.672 13.617 13.617 0 0 0-.571 11.169A2.989 2.989 0 0 0 57.916 344h13.122a3 3 0 0 0 2.47-1.6 13.615 13.615 0 0 0-.586-11.184.5.5 0 0 1 .22-.673.509.509 0 0 1 .679.218 14.612 14.612 0 0 1 .625 12.008A4.021 4.021 0 0 1 71.039 345H57.916Zm6.815-3.25c-2.131 0-3.785-2.956-3.785-5.5 0-2.224 1.379-3.5 3.785-3.5s3.785 1.276 3.785 3.5c-.001 2.544-1.654 5.5-3.786 5.5Zm0-8c-1.841 0-2.775.841-2.775 2.5 0 1.983 1.307 4.5 2.775 4.5s2.776-2.517 2.776-4.5c-.001-1.659-.935-2.5-2.777-2.5Zm2.522-8.75h-11.1a.5.5 0 1 1 0-1h11.1a.5.5 0 1 1 0 1Zm6.056 0h-2.018a.5.5 0 1 1 0-1h2.019a.5.5 0 1 1-.001 1Zm-1.509 5a5.7 5.7 0 0 1-3.532-.978c-1.47 1.305-5.7 1.29-7.11-.041a5.808 5.808 0 0 1-3.488.939c-1.8 0-4.037 0-4.037-1.42a.5.5 0 0 1 .053-.224l1.965-3.894V322.5a1.509 1.509 0 0 1 1.514-1.5H72.3a1.509 1.509 0 0 1 1.514 1.5v1.882l1.965 3.894a.507.507 0 0 1 .053.224c0 1.5-2.626 1.5-4.032 1.5Zm-3.028-2c0 .353 1.149 1 3.028 1 2.386 0 2.892-.305 3-.439l-1.937-3.837a.506.506 0 0 1-.063-.224v-2a.5.5 0 0 0-.5-.5H57.161a.5.5 0 0 0-.5.5v2a.5.5 0 0 1-.053.224l-1.939 3.841c.114.142.673.355 3 .355 1.878 0 3.028-.647 3.028-1a.5.5 0 0 1 1.009 0c0 .433 1.15 1.08 3.028 1.08s3.028-.647 3.028-1a.5.5 0 0 1 1.005 0Z" data-name="Ərzaq məhsulları" style="fill:#ff8230;fill-rule:evenodd" transform="translate(-53.5 -321)"/></svg>