<svg xmlns="http://www.w3.org/2000/svg" width="15" height="24"><path d="M64.347 439h-6.738a1.624 1.624 0 0 1-1.619-1.624v-13.1a.5.5 0 0 1 .5-.5 1.149 1.149 0 0 0 .627-1.041.5.5 0 0 1 .5-.5h6.738a.5.5 0 0 1 .5.5 1.15 1.15 0 0 0 .626 1.041.5.5 0 0 1 .5.5v13.1A1.624 1.624 0 0 1 64.347 439Zm-7.365-14.334v12.71a.628.628 0 0 0 .627.628h6.738a.628.628 0 0 0 .626-.628v-12.71a2.135 2.135 0 0 1-1.058-1.431H58.04a2.134 2.134 0 0 1-1.058 1.432Zm4.744-1.431a.494.494 0 0 1-.351-.145l-1.5-1.5a.5.5 0 0 1 .7-.7l1.5 1.5a.5.5 0 0 1-.348.846Zm3.556 6.944A9.133 9.133 0 0 1 60.571 429a8.146 8.146 0 0 0-4.092-1.072.5.5 0 0 1-.49-.5.481.481 0 0 1 .5-.491 9.091 9.091 0 0 1 4.523 1.178 8.2 8.2 0 0 0 4.267 1.074.5.5 0 0 1 .003.991Zm-1.354 3.671a.428.428 0 0 1-.062 0 9.217 9.217 0 0 1-3.294-1.092 8.121 8.121 0 0 0-4.092-1.066.5.5 0 0 1-.49-.5.468.468 0 0 1 .5-.492 9.06 9.06 0 0 1 4.524 1.17 8.3 8.3 0 0 0 2.973 1 .5.5 0 0 1-.059.981Zm.793-10.615h-7.486a.5.5 0 0 1 0-1h7.486a.5.5 0 0 1 0 1.001Zm4.294 15.643h-4.168a.5.5 0 0 1 0-1h4.168a1 1 0 0 0 .993-1v-1.5a3.012 3.012 0 0 0-.2-.906 5.909 5.909 0 0 1 0-4.949 2.964 2.964 0 0 0 .2-.893v-5.365a3.734 3.734 0 0 0-.172-1.2 11.257 11.257 0 0 0-1.209-2.44c-.12-.2-.25-.414-.393-.655h-3.4c-.144.242-.274.457-.395.657a11.273 11.273 0 0 0-1.209 2.445 2.887 2.887 0 0 0-.142.695.5.5 0 1 1-.99-.071 3.9 3.9 0 0 1 .192-.948 12.344 12.344 0 0 1 1.3-2.637c.158-.261.333-.55.53-.889a.5.5 0 0 1 .429-.248h3.97a.493.493 0 0 1 .428.248c.2.338.371.626.529.887a12.4 12.4 0 0 1 1.3 2.63 4.726 4.726 0 0 1 .226 1.53v5.365a3.911 3.911 0 0 1-.274 1.274 4.933 4.933 0 0 0 0 4.186 3.922 3.922 0 0 1 .272 1.291v1.5a1.99 1.99 0 0 1-1.985 1.994Zm-.5-19.906h-3.97a.5.5 0 0 1-.5-.5v-2.441a1.043 1.043 0 0 1 1.04-1.043h2.884a1.042 1.042 0 0 1 1.039 1.043v2.441a.5.5 0 0 1-.489.501Zm-3.465-1h2.968l-.046-1.99h-2.88Zm5.45 9.953h-5.028a.5.5 0 0 1 0-1h4.536v-2.986h-5.489a.5.5 0 0 1 0-1H70.5a.5.5 0 0 1 .5.5v3.982a.5.5 0 0 1-.5.509Z" style="fill:#ff8230;fill-rule:evenodd" transform="translate(-56 -415)"/></svg>