<svg xmlns="http://www.w3.org/2000/svg" width="23.969" height="24"><path d="M71.748 720H56.5a1.514 1.514 0 0 1-1.524-1.5v-21A1.514 1.514 0 0 1 56.5 696h15.248a.5.5 0 1 1 0 1H56.5a.505.505 0 0 0-.508.5v21a.505.505 0 0 0 .508.5h15.248a.505.505 0 0 0 .508-.5v-9a.508.508 0 0 1 1.016 0v9a1.514 1.514 0 0 1-1.524 1.5Zm-2.032-3H58.537a.5.5 0 1 1 0-1h11.179a.5.5 0 1 1 0 1Zm-8.465-5.667h-2.714a.5.5 0 1 1 0-1h2.713a.5.5 0 1 1 0 1ZM68.7 700H58.537a.5.5 0 1 1 0-1H68.7a.5.5 0 1 1 0 1Zm-6.1 5.666h-4.063a.5.5 0 1 1 0-1H62.6a.5.5 0 1 1 0 1ZM68.7 711h-4.066a.5.5 0 0 1-.508-.5v-4a.5.5 0 0 1 .149-.354l9.443-9.293a1.542 1.542 0 0 1 2.156 0l2.627 2.586a1.482 1.482 0 0 1 0 2.121l-9.442 9.293a.512.512 0 0 1-.359.147Zm-3.557-1h3.347l9.294-9.146a.5.5 0 0 0 .149-.355.488.488 0 0 0-.149-.352l-2.627-2.587a.516.516 0 0 0-.72 0l-9.294 9.147V710Zm10.671-6a.513.513 0 0 1-.359-.146l-4.065-4a.493.493 0 0 1 0-.706.513.513 0 0 1 .719 0l4.065 4a.494.494 0 0 1 0 .707.513.513 0 0 1-.361.145Zm-12.195 8a.513.513 0 0 1-.359-.146.5.5 0 0 1 0-.708l1.016-1a.513.513 0 0 1 .719 0 .493.493 0 0 1 0 .706l-1.016 1a.513.513 0 0 1-.361.148Z" style="fill:#ff8230;fill-rule:evenodd" transform="translate(-54.969 -696)"/></svg>