<svg xmlns="http://www.w3.org/2000/svg" width="18.906" height="23.937"><path d="M67.464 486H56.513a1.5 1.5 0 0 1-1.493-1.5v-14.96a.5.5 0 0 1 .5-.5h11.944a.5.5 0 0 1 .5.5v15.96a.5.5 0 0 1-.5.5Zm-11.448-15.957v14.462a.5.5 0 0 0 .5.5h10.45v-14.962h-10.95Zm11.448 0H55.518a.5.5 0 0 1-.457-.695l2.987-6.981a.5.5 0 0 1 .457-.3h11.946a.5.5 0 0 1 .458.695l-2.987 6.982a.5.5 0 0 1-.458.299Zm-11.191-1h10.862l2.561-5.984H58.833ZM72.442 486h-4.978a.5.5 0 0 1-.5-.5v-15.955a.5.5 0 0 1 .5-.5h5.973a.5.5 0 0 1 .5.5v14.96A1.5 1.5 0 0 1 72.442 486Zm-4.48-1h4.48a.5.5 0 0 0 .5-.5v-14.457h-4.98V485Zm5.476-14.961a.5.5 0 0 1-.458-.3l-2.987-6.982a.5.5 0 1 1 .916-.392l2.987 6.981a.5.5 0 0 1-.262.655.487.487 0 0 1-.197.042Zm-10.454-2.489a1.5 1.5 0 1 1 1.493-1.5 1.5 1.5 0 0 1-1.493 1.5Zm0-2a.5.5 0 1 0 .5.5.5.5 0 0 0-.5-.495Z" data-name="Süd məhsulları" style="fill:#ff8230;fill-rule:evenodd" transform="translate(-55.031 -462.063)"/></svg>