<svg xmlns="http://www.w3.org/2000/svg" width="23.688" height="22.781"><path d="M69.932 765.888a16.023 16.023 0 0 1-3.032-.588 14.027 14.027 0 0 0-2.1-.44 14.043 14.043 0 0 0-2.1.44 16.018 16.018 0 0 1-3.029.585 3.574 3.574 0 0 1-3.571-3.569c0-.024.01-.131.014-.155-.017-1.883 1.612-3.076 3.581-4.334a1.561 1.561 0 0 0 .552-.6 6.7 6.7 0 0 1 4.1-3.567c.049-.009.1-.015.155-.022a1.951 1.951 0 0 1 .549-.006c.1.013.151.019.2.029l.144.029a6.9 6.9 0 0 1 3.953 3.537 1.564 1.564 0 0 0 .549.6c.3.191.579.357.844.515 1.4.831 2.5 1.488 2.713 3.636a3.278 3.278 0 0 1 .041.34 3.575 3.575 0 0 1-3.563 3.57Zm-5.132-2.012a13.021 13.021 0 0 1 2.34.47 16.194 16.194 0 0 0 2.789.555 2.585 2.585 0 0 0 2.584-2.582c0-.022-.014-.092-.022-.141 0-.01-.014-.084-.014-.094-.158-1.658-.9-2.1-2.235-2.893-.273-.162-.563-.335-.868-.53a2.568 2.568 0 0 1-.894-.97 5.9 5.9 0 0 0-3.311-3.037l-.218-.037a1.158 1.158 0 0 0-.289 0l-.137.018a5.717 5.717 0 0 0-3.4 3.056 2.549 2.549 0 0 1-.9.971c-1.775 1.136-3.133 2.111-3.119 3.466a1.093 1.093 0 0 1-.015.181 2.583 2.583 0 0 0 2.581 2.592 16.191 16.191 0 0 0 2.789-.555 13.023 13.023 0 0 1 2.339-.47Zm-3.355-11.925c-1.5 0-2.916-1.691-3.294-4.017a5.315 5.315 0 0 1 .694-3.9 2.215 2.215 0 0 1 1.467-.938c1.593-.231 3.177 1.523 3.579 4a5.316 5.316 0 0 1-.695 3.9 2.213 2.213 0 0 1-1.467.939 2.107 2.107 0 0 1-.281.016Zm-.845-7.893a.906.906 0 0 0-.147.011 1.232 1.232 0 0 0-.812.545 4.4 4.4 0 0 0-.516 3.162c.3 1.871 1.429 3.336 2.464 3.178a1.237 1.237 0 0 0 .812-.545 4.4 4.4 0 0 0 .516-3.163c-.286-1.783-1.324-3.188-2.317-3.188Zm-3.989 13.813c-1.46 0-2.887-1.628-3.347-3.909a5.376 5.376 0 0 1 .54-3.962 2.169 2.169 0 0 1 1.4-.976c1.576-.295 3.2 1.41 3.7 3.876a5.374 5.374 0 0 1-.539 3.96 2.171 2.171 0 0 1-1.4.978 1.938 1.938 0 0 1-.35.033Zm-1.045-7.894a1.105 1.105 0 0 0-.182.016 1.2 1.2 0 0 0-.762.559 4.461 4.461 0 0 0-.39 3.215c.376 1.867 1.541 3.275 2.555 3.1a1.2 1.2 0 0 0 .762-.561 4.455 4.455 0 0 0 .389-3.213c-.351-1.755-1.406-3.116-2.368-3.116Zm12.934 1.974a2.114 2.114 0 0 1-.285-.02 2.213 2.213 0 0 1-1.466-.939 5.312 5.312 0 0 1-.7-3.9c.4-2.473 1.972-4.22 3.581-4a2.217 2.217 0 0 1 1.465.937 5.32 5.32 0 0 1 .7 3.9c-.381 2.331-1.795 4.022-3.295 4.022Zm.844-7.893c-.99 0-2.027 1.4-2.317 3.188a4.4 4.4 0 0 0 .517 3.163 1.237 1.237 0 0 0 .812.545c1.036.156 2.16-1.306 2.465-3.178a4.4 4.4 0 0 0-.518-3.163 1.233 1.233 0 0 0-.811-.544.916.916 0 0 0-.15-.011Zm-2.8 3.11Zm6.793 10.7a1.944 1.944 0 0 1-.355-.033 2.174 2.174 0 0 1-1.4-.977 5.374 5.374 0 0 1-.54-3.961c.5-2.466 2.109-4.169 3.7-3.876a2.168 2.168 0 0 1 1.4.976 5.376 5.376 0 0 1 .541 3.962c-.464 2.284-1.89 3.912-3.352 3.912Zm1.045-7.894c-.963 0-2.019 1.36-2.372 3.118a4.455 4.455 0 0 0 .39 3.213 1.2 1.2 0 0 0 .762.561c1.015.184 2.178-1.235 2.554-3.1a4.462 4.462 0 0 0-.391-3.215 1.2 1.2 0 0 0-.761-.559 1.1 1.1 0 0 0-.188-.015Z" data-name="Heyvan yemləri" style="fill:#ff8230;fill-rule:evenodd" transform="translate(-53.125 -743.094)"/></svg>