<svg xmlns="http://www.w3.org/2000/svg" width="23" height="23.906"><path d="M72.5 533a2.5 2.5 0 1 1 2.5-2.5 2.5 2.5 0 0 1-2.5 2.5Zm0-3.994a1.5 1.5 0 1 0 1.5 1.5 1.5 1.5 0 0 0-1.5-1.499ZM60.5 533a2.5 2.5 0 1 1 2.5-2.5 2.5 2.5 0 0 1-2.5 2.5Zm0-3.994a1.5 1.5 0 1 0 1.5 1.5 1.5 1.5 0 0 0-1.5-1.499Zm9.411-2H62.09c-3.927 0-6.089-2.869-6.089-8.077v-1.409a.5.5 0 0 1 .5-.5h19a.5.5 0 0 1 .5.5v1.409c-.001 5.212-2.163 8.081-6.09 8.081ZM57 518.023v.91c0 4.7 1.712 7.079 5.089 7.079h7.822c3.377 0 5.089-2.382 5.089-7.079v-.91H57Zm18.5 0H67a.5.5 0 0 1-.493-.582l1.193-7.091a1.511 1.511 0 0 1 1.683-1.243A7.67 7.67 0 0 1 76 516.681v.843a.5.5 0 0 1-.5.499Zm-7.909-1H75v-.344a6.667 6.667 0 0 0-5.751-6.584.507.507 0 0 0-.562.417Zm.6-6.593ZM56.5 518.023a.5.5 0 0 1-.474-.341l-.886-2.654H53.5a.5.5 0 1 1 0-1h2a.5.5 0 0 1 .474.341l1 3a.5.5 0 0 1-.316.632.514.514 0 0 1-.158.022Z" data-name="Uşaq məhsulları" style="fill:#ff8230;fill-rule:evenodd" transform="translate(-53 -509.094)"/></svg>