<svg xmlns="http://www.w3.org/2000/svg" width="15.031" height="24"><path d="M64.5 626h-7.021a.5.5 0 0 1-.5-.5v-11.83a.5.5 0 0 1 .5-.5H64.5a.5.5 0 0 1 .5.5v11.83a.5.5 0 0 1-.5.5Zm-6.526-1H64v-10.829h-6.025V625Zm6.526-1.3h-4.806a.5.5 0 0 1 0-1H64.5a.5.5 0 0 1 0 1Zm-1.108-9.611a.5.5 0 0 1-.5-.5v-6.342H61.1a1.906 1.906 0 0 0-2.018 1.764v4.578a.5.5 0 1 1-.992 0v-4.578a2.9 2.9 0 0 1 3.011-2.763h2.292a.5.5 0 0 1 .5.5v6.842a.5.5 0 0 1-.5.502ZM69.942 626h-8.6a.5.5 0 0 1 0-1h8.6A1.065 1.065 0 0 0 71 623.931v-19.866A1.066 1.066 0 0 0 69.942 603h-6.62a1.066 1.066 0 0 0-1.062 1.068v2.686a.5.5 0 1 1-.992 0v-2.686A2.063 2.063 0 0 1 63.323 602h6.62A2.063 2.063 0 0 1 72 604.065v19.866A2.063 2.063 0 0 1 69.942 626Zm1.558-17.4h-8.112a.5.5 0 0 1 0-1H71.5a.5.5 0 0 1 0 1Zm-2.5-2.1a.5.5 0 0 1-.5-.5v-.979a.5.5 0 1 1 .992 0V606a.5.5 0 0 1-.492.506Z" data-name="Kosmetik və gigiyenik" style="fill:#ff8230;fill-rule:evenodd" transform="translate(-56.969 -602)"/></svg>