<svg xmlns="http://www.w3.org/2000/svg" width="23" height="24"><path d="M74.5 812h-20a1.5 1.5 0 0 1-1.5-1.5v-5a1.5 1.5 0 0 1 1.5-1.5h20a1.5 1.5 0 0 1 1.5 1.5v5a1.5 1.5 0 0 1-1.5 1.5Zm-20-7a.5.5 0 0 0-.5.5v5a.5.5 0 0 0 .5.5h20a.5.5 0 0 0 .5-.5v-5a.5.5 0 0 0-.5-.5h-20Zm0 9a.5.5 0 0 1-.5-.5v-2a.5.5 0 1 1 1 0v2a.5.5 0 0 1-.5.5Zm20 0a.5.5 0 0 1-.5-.5v-2a.5.5 0 1 1 1 0v2a.5.5 0 0 1-.5.5Zm1-5h-22a.5.5 0 1 1 0-1h22a.5.5 0 0 1 0 1Zm-3-8h-16a.5.5 0 0 1-.5-.5v-10a.5.5 0 0 1 .5-.5h16a.5.5 0 0 1 .5.5v10a.5.5 0 0 1-.5.5ZM57 800h15v-9H57v9Zm7.5 12a.5.5 0 0 1-.5-.5v-3a.5.5 0 1 1 1 0v3a.5.5 0 0 1-.5.5Zm0-7a.5.5 0 0 1-.5-.5v-4a.5.5 0 1 1 1 0v4a.5.5 0 0 1-.5.5Z" data-name="Elektronika və mebel" style="fill:#ff8230;fill-rule:evenodd" transform="translate(-53 -790)"/></svg>